:SAMPLES-PER-SECOND 30
:FULLY-SPECIFIED
:DEGREES
1213
root  11.2332 39.3223 10.1111 167.336 89.4497 169.546
RightUpLeg  -8.95339 -20.8939 -12.8105
RightLeg  20.8932 -2.10653 -1.11268
RightFoot  -3.31996 -0.590859 8.09089
RightToes  0.000481921 0.542163 -0.142578
Spine  24.7357 -4.66767 -17.1544
Spine1  -3.42128 -12.8621 28.5289
HEad  10.4633 19.1445 -11.8531
LeftShoulder1  1.58608 -6.002 -9.31995
LeftArm  -18.5018 -31.3268 -15.6659
LeftForeArm  94.4072 -79.7668 -58.227
LeftHand  -0.25398 0.0180481 5.50724
RightShoulder  2.32533 4.35405 23.3516
RightArm  -4.6676 -24.035 36.2171
RightForeArm  -173.817 47.2799 170.08
RightHand  -0.268473 3.05893 -3.96963
LeftUpLeg  -12.8968 19.7442 3.82667
LeftLeg  27.8593 8.29305 5.06683
LeftFoot  -7.68563 0.117697 -2.23998
LeftToes  1.06245e-005 4.65869e-005 -8.65517e-006
1214
root  11.3783 39.2863 10.0473 177.49 84.3123 179.032
RightUpLeg  -8.00843 -23.2614 -13.8725
RightLeg  21.5689 -4.37603 -2.12223
RightFoot  -4.08724 -0.596546 8.95192
RightToes  0.000481921 0.542163 -0.142578
Spine  25.0363 -5.26142 -18.3335
Spine1  -3.97008 -13.8177 29.9382
HEad  9.95762 17.4462 -11.0501
LeftShoulder1  1.75776 -5.39124 -12.7028
LeftArm  -13.1257 -20.9669 -23.2539
LeftForeArm  -171.372 -76.1392 -145.796
LeftHand  -0.25398 0.0180481 5.50724
RightShoulder  1.58484 2.2024 21.4352
RightArm  -9.83021 -32.1882 37.3061
RightForeArm  -172.445 46.5655 170.413
RightHand  -0.102788 2.06344 -1.75409
LeftUpLeg  -14.3498 16.6893 2.68212
LeftLeg  27.9053 6.70846 4.18165
LeftFoot  -7.51767 0.087777 -1.28249
LeftToes  1.06245e-005 4.65869e-005 -8.65517e-006
1215
root  11.5291 39.3047 10.0361 178.003 77.9867 178.374
RightUpLeg  -6.76954 -26.8084 -14.7677
RightLeg  21.5786 -6.69228 -3.12699
RightFoot  -4.47833 -0.625374 9.89303
RightToes  0.000481921 0.542163 -0.142578
Spine  25.1354 -5.90705 -18.9539
Spine1  -4.93562 -14.4987 31.0875
HEad  9.48703 14.701 -10.5829
LeftShoulder1  2.1544 -5.20692 -18.0352
LeftArm  -6.56861 -9.54136 -29.3233
LeftForeArm  -156.648 -68.2915 -159.67
LeftHand  -0.25398 0.0180481 5.50724
RightShoulder  1.02977 0.440324 19.6919
RightArm  -15.9299 -37.407 37.5319
RightForeArm  -172.583 46.2811 170.502
RightHand  0.0361107 -0.023811 0.804207
LeftUpLeg  -16.1313 14.1392 1.58239
LeftLeg  27.2875 3.78743 2.46433
LeftFoot  -6.87458 0.0428138 -0.0503769
LeftToes  1.06245e-005 4.65869e-005 -8.65517e-006
1216
root  11.6351 39.362 10.0283 178.896 71.194 177.84
RightUpLeg  -5.35288 -30.9416 -15.7777
RightLeg  21.1258 -8.99256 -3.94525
RightFoot  -4.4605 -0.683292 10.8245
RightToes  0.000481921 0.542163 -0.142578
Spine  25.1833 -6.14258 -18.7141
Spine1  -5.93105 -14.4022 31.0991
HEad  8.81143 9.98543 -9.39884
LeftShoulder1  2.88346 -5.87497 -24.4607
LeftArm  -2.90547 1.98687 -32.8085
LeftForeArm  -161.518 -66.8956 -160.152
LeftHand  -0.25398 0.0180481 5.50724
RightShoulder  0.69136 -0.763219 18.7186
RightArm  -21.0972 -38.2988 35.4359
RightForeArm  -176.359 47.7882 169.734
RightHand  0.0246845 -2.42065 1.55327
LeftUpLeg  -17.8535 11.3601 0.308479
LeftLeg  26.0664 0.645181 0.684041
LeftFoot  -5.69949 -0.0192775 1.08524
LeftToes  1.06245e-005 4.65869e-005 -8.65517e-006
1217
root  11.6461 39.4358 9.99422 179.418 65.138 176.937
RightUpLeg  -4.09851 -34.0903 -16.9226
RightLeg  20.5419 -11.6651 -4.5041
RightFoot  -4.07099 -0.767696 11.6064
RightToes  0.000481921 0.542163 -0.142578
Spine  24.9974 -5.55462 -16.9215
Spine1  -6.18451 -13.011 28.5693
HEad  6.98211 2.64791 -6.27739
LeftShoulder1  3.66541 -6.67584 -29.9237
LeftArm  -2.80957 11.6378 -35.2259
LeftForeArm  -164.347 -67.8904 -158.886
LeftHand  -0.25398 0.0180481 5.50724
RightShoulder  0.430858 -1.74163 17.8105
RightArm  -25.0389 -35.1943 31.6527
RightForeArm  177.88 51.6906 167.827
RightHand  -0.0291293 -3.88272 0.0672564
LeftUpLeg  -19.1472 8.45048 -1.09251
LeftLeg  24.3863 -1.82633 -0.572313
LeftFoot  -4.2424 -0.0911526 1.88598
LeftToes  1.06245e-005 4.65869e-005 -8.65517e-006
1218
root  11.5349 39.5046 9.94874 179.785 60.6493 176.086
RightUpLeg  -3.40483 -35.4922 -17.8327
RightLeg  20.1116 -14.5876 -4.95356
RightFoot  -3.45556 -0.860289 12.0974
RightToes  0.000481921 0.542163 -0.142578
Spine  24.358 -4.08645 -12.7948
Spine1  -5.27574 -9.99237 22.3967
HEad  3.28995 -7.15019 -0.626869
LeftShoulder1  4.31894 -7.52835 -33.0851
LeftArm  -3.79338 18.1233 -37.1341
LeftForeArm  -161.586 -68.0748 -158.967
LeftHand  -0.25398 0.0180481 5.50724
RightShoulder  0.191127 -2.67545 16.3044
RightArm  -28.8921 -29.8104 26.5828
RightForeArm  172.591 57.8479 164.509
RightHand  -0.0485259 -3.9988 -1.67247
LeftUpLeg  -19.9933 6.41543 -2.41535
LeftLeg  22.6068 -3.74421 -1.38246
LeftFoot  -2.79134 -0.163345 2.41232
LeftToes  1.06245e-005 4.65869e-005 -8.65517e-006
1219
root  11.3011 39.5563 9.92629 179.954 57.8971 175.433
RightUpLeg  -3.45043 -35.8024 -18.2522
RightLeg  19.9936 -16.8622 -5.51457
RightFoot  -2.78616 -0.93491 12.2032
RightToes  0.000481921 0.542163 -0.142578
Spine  23.7625 -2.06017 -6.57856
Spine1  -3.77539 -5.56668 13.3267
HEad  -1.74402 -17.6012 6.55607
LeftShoulder1  4.87724 -8.68588 -33.9581
LeftArm  -4.04991 21.3242 -37.8542
LeftForeArm  -160.085 -67.2677 -159.917
LeftHand  -0.25398 0.0180481 5.50724
RightShoulder  0.0530136 -3.2569 14.6262
RightArm  -32.7254 -22.8616 19.2445
RightForeArm  163.183 67.6522 155.28
RightHand  -0.0705046 -3.47846 -2.84099
LeftUpLeg  -20.5105 6.13163 -3.59866
LeftLeg  21.0716 -5.72382 -2.10403
LeftFoot  -1.43412 -0.239522 2.86249
LeftToes  1.06245e-005 4.65869e-005 -8.65517e-006
1220
root  10.9614 39.5866 9.93747 179.674 56.8179 174.795
RightUpLeg  -4.22467 -35.8167 -18.3039
RightLeg  20.2386 -17.7306 -6.24705
RightFoot  -2.14561 -0.980946 11.9755
RightToes  0.000481921 0.542163 -0.142578
Spine  23.86 -0.0300356 0.461291
Spine1  -2.26919 -0.608704 3.44515
HEad  -6.32287 -26.1389 12.7164
LeftShoulder1  5.26534 -9.76353 -33.6344
LeftArm  -3.77487 21.7547 -37.0915
LeftForeArm  -163.016 -66.3405 -160.508
LeftHand  -0.25398 0.0180481 5.50724
RightShoulder  0.0642654 -3.1815 12.737
RightArm  -35.5728 -12.8582 10.0129
RightForeArm  110.464 79.0744 101.062
RightHand  -0.133325 -2.45449 -4.47376
LeftUpLeg  -20.7142 7.44969 -4.72961
LeftLeg  19.8257 -7.73184 -2.75892
LeftFoot  -0.198262 -0.317904 3.27134
LeftToes  1.06245e-005 4.65869e-005 -8.65517e-006
1221
root  10.5547 39.589 9.97073 178.679 57.3191 173.794
RightUpLeg  -5.63841 -35.367 -18.2997
RightLeg  20.8613 -17.4541 -7.00146
RightFoot  -1.60321 -1.00497 11.6308
RightToes  0.000481921 0.542163 -0.142578
Spine  24.5761 1.51597 7.39052
Spine1  -0.529308 4.14932 -5.99825
HEad  -8.87019 -31.6774 15.6354
LeftShoulder1  5.50338 -10.4226 -33.4678
LeftArm  -3.94604 20.0523 -34.708
LeftForeArm  -165.288 -65.6094 -160.939
LeftHand  -0.25398 0.0180481 5.50724
RightShoulder  0.202757 -2.24172 9.05941
RightArm  -37.3484 0.0702655 2.0637
RightForeArm  35.4085 61.1222 17.2861
RightHand  -0.265919 0.336383 -5.58525
LeftUpLeg  -20.6426 9.52988 -5.86951
LeftLeg  18.7905 -9.06665 -3.09877
LeftFoot  0.76216 -0.367159 3.42131
LeftToes  1.06245e-005 4.65869e-005 -8.65517e-006
1222
root  10.1587 39.5589 10.0269 176.864 59.0071 172.083
RightUpLeg  -7.45255 -33.9292 -18.5321
RightLeg  21.8556 -16.9427 -7.54204
RightFoot  -1.32742 -1.0079 11.3649
RightToes  0.000481921 0.542163 -0.142578
Spine  25.6942 2.42052 13.6531
Spine1  1.30142 8.46774 -14.7257
HEad  -9.61688 -34.7876 15.5504
LeftShoulder1  5.72087 -10.8564 -33.7896
LeftArm  -5.34378 17.2229 -30.9985
LeftForeArm  -164.533 -65.0288 -161.499
LeftHand  -0.25398 0.0180481 5.50724
RightShoulder  0.350074 -0.334499 3.19668
RightArm  -38.4738 12.2803 -2.13984
RightForeArm  40.0696 30.5007 3.50402
RightHand  -0.331362 4.54878 -4.29001
LeftUpLeg  -20.4834 11.8491 -7.00971
LeftLeg  18.0037 -9.47943 -3.13262
LeftFoot  1.30199 -0.353227 3.1172
LeftToes  1.06245e-005 4.65869e-005 -8.65517e-006
1223
root  9.87254 39.5069 10.1182 174.482 61.0322 169.66
RightUpLeg  -9.33838 -32.116 -19.0359
RightLeg  23.0802 -16.4681 -7.75551
RightFoot  -1.4574 -0.979834 11.1826
RightToes  0.000481921 0.542163 -0.142578
Spine  27.077 2.85599 18.0811
Spine1  2.249 11.8335 -21.8099
HEad  -9.628 -36.1512 14.405
LeftShoulder1  5.86182 -11.1441 -33.969
LeftArm  -8.19823 14.824 -27.3688
LeftForeArm  -164.32 -64.4546 -161.981
LeftHand  -0.25398 0.0180481 5.50724
RightShoulder  0.329566 1.68597 -2.43601
RightArm  -38.8194 22.0917 -3.0928
RightForeArm  51.7768 13.8031 -0.346361
RightHand  -0.342811 8.08429 -3.35975
LeftUpLeg  -20.4493 14.1749 -8.06613
LeftLeg  17.5072 -9.44331 -3.18157
LeftFoot  1.49657 -0.289896 2.49561
LeftToes  1.06245e-005 4.65869e-005 -8.65517e-006
